<?xml version="1.0" encoding="UTF-8"?>
<svg id="Layer_1" data-name="Layer 1" xmlns="http://www.w3.org/2000/svg" viewBox="0 0 576 360">
  <defs>
    <style>
      .cls-1 {
        letter-spacing: .05em;
      }

      .cls-2 {
        letter-spacing: .05em;
      }

      .cls-3 {
        letter-spacing: .05em;
      }

      .cls-4, .cls-5 {
        fill: #fff;
      }

      .cls-5 {
        font-family: Nord-Regular, Nord;
        font-size: 30px;
      }

      .cls-6 {
        letter-spacing: .02em;
      }

      .cls-7 {
        letter-spacing: .01em;
      }
    </style>
  </defs>
  <text class="cls-5" transform="translate(122.67 302.28)"><tspan class="cls-6" x="0" y="0">C</tspan><tspan class="cls-1" x="22.89" y="0">amille </tspan><tspan class="cls-7" x="157.56" y="0">C</tspan><tspan class="cls-1" x="180.45" y="0">ardo</tspan><tspan class="cls-2" x="277.92" y="0">s</tspan><tspan class="cls-3" x="300.36" y="0">a</tspan></text>
  <g>
    <g>
      <path class="cls-4" d="m268.13,149.37c-19.64-19.1-47.77-21.85-67.76-1.8-7.54,7.84-12.13,18.32-12.75,29.13-1.12,14.28,5.48,27.79,14.55,38.63.17.16-.11.46-.28.28-6.11-5.29-11.52-11.93-14.72-19.51-7.85-17.87-2.81-37.41,10.94-50.8,14.51-14.25,37.02-17.97,54.9-8.01,5.76,3.07,10.87,7.18,15.41,11.79.18.18-.11.47-.28.28h0Z"/>
      <path class="cls-4" d="m273.73,154.97c-19.64-19.1-47.77-21.85-67.76-1.8-7.54,7.84-12.13,18.32-12.75,29.13-1.12,14.28,5.48,27.79,14.55,38.63.17.16-.11.46-.28.28-6.11-5.29-11.52-11.93-14.72-19.51-7.85-17.87-2.81-37.41,10.94-50.8,14.51-14.25,37.02-17.97,54.9-8.01,5.76,3.07,10.87,7.18,15.41,11.79.18.18-.11.47-.28.28h0Z"/>
      <path class="cls-4" d="m279.56,160.8c-19.64-19.1-47.77-21.85-67.76-1.8-7.54,7.84-12.13,18.32-12.75,29.13-1.12,14.28,5.48,27.79,14.55,38.63.17.16-.11.46-.28.28-6.11-5.29-11.52-11.93-14.72-19.51-7.85-17.87-2.81-37.41,10.94-50.8,14.51-14.25,37.02-17.97,54.9-8.01,5.76,3.07,10.87,7.18,15.41,11.79.18.18-.11.47-.28.28h0Z"/>
      <path class="cls-4" d="m285.16,166.4c-19.64-19.1-47.77-21.85-67.76-1.8-7.54,7.84-12.13,18.32-12.75,29.13-1.12,14.28,5.48,27.79,14.55,38.63.17.16-.11.46-.28.28-6.11-5.29-11.52-11.93-14.72-19.51-7.85-17.87-2.81-37.41,10.94-50.8,14.51-14.25,37.02-17.97,54.9-8.01,5.76,3.07,10.87,7.18,15.41,11.79.18.18-.11.47-.28.28h0Z"/>
      <path class="cls-4" d="m291.69,172.92c-19.64-19.1-47.77-21.85-67.76-1.8-7.54,7.84-12.13,18.32-12.75,29.13-1.12,14.28,5.48,27.79,14.55,38.63.17.16-.11.46-.28.28-6.11-5.29-11.52-11.93-14.72-19.51-7.85-17.87-2.81-37.41,10.94-50.8,14.51-14.25,37.02-17.97,54.9-8.01,5.76,3.07,10.87,7.18,15.41,11.79.18.18-.11.47-.28.28h0Z"/>
      <path class="cls-4" d="m297.29,178.52c-19.64-19.1-47.77-21.85-67.76-1.8-7.54,7.84-12.13,18.32-12.75,29.13-1.12,14.28,5.48,27.79,14.55,38.63.17.16-.11.46-.28.28-6.11-5.29-11.52-11.93-14.72-19.51-7.85-17.87-2.81-37.41,10.94-50.8,14.51-14.25,37.02-17.97,54.9-8.01,5.76,3.07,10.87,7.18,15.41,11.79.18.18-.11.47-.28.28h0Z"/>
      <path class="cls-4" d="m303.12,184.35c-19.64-19.1-47.77-21.85-67.76-1.8-7.54,7.84-12.13,18.32-12.75,29.13-1.12,14.28,5.48,27.79,14.55,38.63.17.16-.11.46-.28.28-6.11-5.29-11.52-11.93-14.72-19.51-7.85-17.87-2.81-37.41,10.94-50.8,14.51-14.25,37.02-17.97,54.9-8.01,5.76,3.07,10.87,7.18,15.41,11.79.18.18-.11.47-.28.28h0Z"/>
      <path class="cls-4" d="m308.72,189.95c-19.64-19.1-47.77-21.85-67.76-1.8-7.54,7.84-12.13,18.32-12.75,29.13-1.12,14.28,5.48,27.79,14.55,38.63.17.16-.11.46-.28.28-6.11-5.29-11.52-11.93-14.72-19.51-7.85-17.87-2.81-37.41,10.94-50.8,14.51-14.25,37.02-17.97,54.9-8.01,5.76,3.07,10.87,7.18,15.41,11.79.18.18-.11.47-.28.28h0Z"/>
    </g>
    <g>
      <path class="cls-4" d="m367.46,118.31c20.83,19.76,24.05,48.8,3.78,70.31-13.4,13.75-32.93,18.79-50.8,10.94-7.57-3.21-14.22-8.61-19.51-14.72-.16-.18.1-.45.28-.28,10.83,9.07,24.35,15.67,38.63,14.55,10.81-.62,21.29-5.22,29.13-12.75,13.98-13.35,17.93-34.73,9.2-52.1-2.76-5.75-6.6-10.97-11-15.67-.19-.16.11-.48.28-.28h0Z"/>
      <path class="cls-4" d="m361.86,112.72c20.83,19.76,24.05,48.8,3.78,70.31-13.4,13.75-32.93,18.79-50.8,10.94-7.57-3.21-14.22-8.61-19.51-14.72-.16-.18.1-.45.28-.28,10.83,9.07,24.35,15.67,38.63,14.55,10.81-.62,21.29-5.22,29.13-12.75,13.98-13.35,17.93-34.73,9.2-52.1-2.77-5.75-6.6-10.97-11-15.67-.19-.16.11-.48.28-.28h0Z"/>
      <path class="cls-4" d="m356.03,106.88c20.83,19.76,24.05,48.8,3.78,70.31-13.4,13.75-32.93,18.79-50.8,10.94-7.57-3.21-14.22-8.61-19.51-14.72-.16-.18.1-.45.28-.28,10.83,9.07,24.35,15.67,38.63,14.55,10.81-.62,21.29-5.22,29.13-12.75,13.98-13.35,17.93-34.73,9.2-52.1-2.76-5.75-6.6-10.97-11-15.67-.19-.16.11-.48.28-.28h0Z"/>
      <path class="cls-4" d="m350.43,101.29c20.83,19.76,24.05,48.8,3.78,70.31-13.4,13.75-32.93,18.79-50.8,10.94-7.57-3.21-14.22-8.61-19.51-14.72-.16-.18.1-.45.28-.28,10.83,9.07,24.35,15.67,38.63,14.55,10.81-.62,21.29-5.22,29.13-12.75,13.98-13.35,17.93-34.73,9.2-52.1-2.76-5.75-6.6-10.97-11-15.67-.19-.16.11-.48.28-.28h0Z"/>
      <path class="cls-4" d="m343.91,94.76c20.83,19.76,24.05,48.8,3.78,70.31-13.4,13.75-32.93,18.79-50.8,10.94-7.57-3.21-14.22-8.61-19.51-14.72-.16-.18.1-.45.28-.28,10.83,9.07,24.35,15.67,38.63,14.55,10.81-.62,21.29-5.22,29.13-12.75,13.98-13.35,17.93-34.73,9.2-52.1-2.77-5.75-6.6-10.97-11-15.67-.19-.16.11-.48.28-.28h0Z"/>
      <path class="cls-4" d="m338.31,89.16c20.83,19.76,24.05,48.8,3.78,70.31-13.4,13.75-32.93,18.79-50.8,10.94-7.57-3.21-14.22-8.61-19.51-14.72-.16-.18.1-.45.28-.28,10.83,9.07,24.35,15.67,38.63,14.55,10.81-.62,21.29-5.22,29.13-12.75,13.98-13.35,17.93-34.73,9.2-52.1-2.77-5.75-6.6-10.97-11-15.67-.19-.16.11-.48.28-.28h0Z"/>
      <path class="cls-4" d="m332.48,83.33c20.83,19.76,24.05,48.8,3.78,70.31-13.4,13.75-32.93,18.79-50.8,10.94-7.57-3.21-14.22-8.61-19.51-14.72-.16-.18.1-.45.28-.28,10.83,9.07,24.35,15.67,38.63,14.55,10.81-.62,21.29-5.22,29.13-12.75,13.98-13.35,17.93-34.73,9.2-52.1-2.76-5.75-6.6-10.97-11-15.67-.19-.16.11-.48.28-.28h0Z"/>
      <path class="cls-4" d="m326.88,77.73c20.83,19.76,24.05,48.8,3.78,70.31-13.4,13.75-32.93,18.79-50.8,10.94-7.57-3.21-14.22-8.61-19.51-14.72-.16-.18.1-.45.28-.28,10.83,9.07,24.35,15.67,38.63,14.55,10.81-.62,21.29-5.22,29.13-12.75,13.98-13.35,17.93-34.73,9.2-52.1-2.76-5.75-6.6-10.97-11-15.67-.19-.16.11-.48.28-.28h0Z"/>
    </g>
  </g>
</svg>